<?xml version="1.0" encoding="UTF-8" standalone="no"?>
<!DOCTYPE svg PUBLIC "-//W3C//DTD SVG 1.1//EN"
 "http://www.w3.org/Graphics/SVG/1.1/DTD/svg11.dtd">
<!-- Generated by graphviz version 2.43.0 (0)
 -->
<!-- Title: %3 Pages: 1 -->
<svg width="485pt" height="96pt"
 viewBox="0.00 0.00 485.00 96.00" xmlns="http://www.w3.org/2000/svg" xmlns:xlink="http://www.w3.org/1999/xlink">
<g id="graph0" class="graph" transform="scale(1 1) rotate(0) translate(4 92)">
<title>%3</title>
<polygon fill="white" stroke="transparent" points="-4,4 -4,-92 481,-92 481,4 -4,4"/>
<text text-anchor="middle" x="238.5" y="-68" font-family="Cabin" font-size="20.00">Flowchart (isolated) for: collection_ICE</text>
<text text-anchor="middle" x="238.5" y="-46" font-family="Cabin" font-size="20.00">&#45;&#45;&#45;&#45;&#45;&#45;&#45;&#45;&#45;&#45;&#45;</text>
<!-- collection_ICE -->
<g id="node1" class="node">
<title>collection_ICE</title>
<polygon fill="#e066ff" stroke="black" points="292,-36 192,-36 192,0 292,0 292,-36"/>
<text text-anchor="middle" x="242" y="-14.3" font-family="Cabin" font-size="14.00">collection_ICE</text>
</g>
<!-- dismantling_ICE -->
<g id="node3" class="node">
<title>dismantling_ICE</title>
<polygon fill="#ffa07a" stroke="black" points="477,-36 392,-36 392,0 477,0 477,-36"/>
<text text-anchor="middle" x="434.5" y="-15.5" font-family="Cabin" font-size="10.00">dismantling_ICE</text>
</g>
<!-- collection_ICE&#45;&gt;dismantling_ICE -->
<g id="edge2" class="edge">
<title>collection_ICE&#45;&gt;dismantling_ICE</title>
<path fill="none" stroke="black" d="M292.06,-18C319.43,-18 353.51,-18 381.37,-18"/>
<polygon fill="black" stroke="black" points="381.71,-21.5 391.71,-18 381.71,-14.5 381.71,-21.5"/>
<text text-anchor="middle" x="342" y="-27.2" font-family="Cabin" font-size="6.00">Composition: ELV_ICE</text>
<text text-anchor="middle" x="342" y="-20.2" font-family="Cabin" font-size="6.00">Amount: 0 kg</text>
</g>
<!-- PutOnMarket_ICE -->
<g id="node2" class="node">
<title>PutOnMarket_ICE</title>
<polygon fill="darkturquoise" stroke="black" points="92,-36 0,-36 0,0 92,0 92,-36"/>
<text text-anchor="middle" x="46" y="-15.5" font-family="Cabin" font-size="10.00">PutOnMarket_ICE</text>
</g>
<!-- PutOnMarket_ICE&#45;&gt;collection_ICE -->
<g id="edge1" class="edge">
<title>PutOnMarket_ICE&#45;&gt;collection_ICE</title>
<path fill="none" stroke="black" d="M92.48,-18C119.02,-18 152.79,-18 181.43,-18"/>
<polygon fill="black" stroke="black" points="181.72,-21.5 191.72,-18 181.72,-14.5 181.72,-21.5"/>
<text text-anchor="middle" x="142" y="-27.2" font-family="Cabin" font-size="6.00">Composition: ELV_ICE</text>
<text text-anchor="middle" x="142" y="-20.2" font-family="Cabin" font-size="6.00">Amount: 1000 kg</text>
</g>
</g>
</svg>
