<?xml version="1.0" encoding="UTF-8" standalone="no"?>
<!DOCTYPE svg PUBLIC "-//W3C//DTD SVG 1.1//EN"
 "http://www.w3.org/Graphics/SVG/1.1/DTD/svg11.dtd">
<!-- Generated by graphviz version 2.43.0 (0)
 -->
<!-- Title: %3 Pages: 1 -->
<svg width="571pt" height="649pt"
 viewBox="0.00 0.00 571.00 649.00" xmlns="http://www.w3.org/2000/svg" xmlns:xlink="http://www.w3.org/1999/xlink">
<g id="graph0" class="graph" transform="scale(1 1) rotate(0) translate(4 645)">
<title>%3</title>
<polygon fill="white" stroke="transparent" points="-4,4 -4,-645 567,-645 567,4 -4,4"/>
<text text-anchor="middle" x="281.5" y="-621" font-family="Cabin" font-size="20.00">Flowchart (isolated) for: dismantling_ICE</text>
<text text-anchor="middle" x="281.5" y="-599" font-family="Cabin" font-size="20.00">&#45;&#45;&#45;&#45;&#45;&#45;&#45;&#45;&#45;&#45;&#45;</text>
<!-- dismantling_ICE -->
<g id="node1" class="node">
<title>dismantling_ICE</title>
<polygon fill="#e066ff" stroke="black" points="288,-312 176,-312 176,-276 288,-276 288,-312"/>
<text text-anchor="middle" x="232" y="-290.3" font-family="Cabin" font-size="14.00">dismantling_ICE</text>
</g>
<!-- market_reuse_ELVcomponents -->
<g id="node3" class="node">
<title>market_reuse_ELVcomponents</title>
<polygon fill="#ffa07a" stroke="black" points="563,-589 414,-589 414,-553 563,-553 563,-589"/>
<text text-anchor="middle" x="488.5" y="-568.5" font-family="Cabin" font-size="10.00">market_reuse_ELVcomponents</text>
</g>
<!-- dismantling_ICE&#45;&gt;market_reuse_ELVcomponents -->
<g id="edge2" class="edge">
<title>dismantling_ICE&#45;&gt;market_reuse_ELVcomponents</title>
<path fill="none" stroke="black" d="M236.54,-312.07C244.24,-347.27 265.53,-425.89 310,-475 340.89,-509.12 386.82,-533.5 424.22,-549.15"/>
<polygon fill="black" stroke="black" points="422.94,-552.41 433.53,-552.94 425.59,-545.93 422.94,-552.41"/>
<text text-anchor="middle" x="351" y="-541.2" font-family="Cabin" font-size="6.00">Composition: ELV_ICE_parts</text>
<text text-anchor="middle" x="351" y="-534.2" font-family="Cabin" font-size="6.00">Amount: 0 kg</text>
</g>
<!-- shredding_batt -->
<g id="node4" class="node">
<title>shredding_batt</title>
<polygon fill="#ffa07a" stroke="black" points="528.5,-510 448.5,-510 448.5,-474 528.5,-474 528.5,-510"/>
<text text-anchor="middle" x="488.5" y="-489.5" font-family="Cabin" font-size="10.00">shredding_batt</text>
</g>
<!-- dismantling_ICE&#45;&gt;shredding_batt -->
<g id="edge3" class="edge">
<title>dismantling_ICE&#45;&gt;shredding_batt</title>
<path fill="none" stroke="black" d="M242.29,-312.1C254.97,-335.37 279.62,-375.87 310,-402 348.4,-435.02 401.01,-459.74 438.98,-474.83"/>
<polygon fill="black" stroke="black" points="437.71,-478.09 448.3,-478.46 440.25,-471.57 437.71,-478.09"/>
<text text-anchor="middle" x="351" y="-460.2" font-family="Cabin" font-size="6.00">Composition: ELV_ICE_batt</text>
<text text-anchor="middle" x="351" y="-453.2" font-family="Cabin" font-size="6.00">Amount: 0.0 kg</text>
</g>
<!-- hammermill_body -->
<g id="node5" class="node">
<title>hammermill_body</title>
<polygon fill="#ffa07a" stroke="black" points="536,-431 441,-431 441,-395 536,-395 536,-431"/>
<text text-anchor="middle" x="488.5" y="-410.5" font-family="Cabin" font-size="10.00">hammermill_body</text>
</g>
<!-- dismantling_ICE&#45;&gt;hammermill_body -->
<g id="edge4" class="edge">
<title>dismantling_ICE&#45;&gt;hammermill_body</title>
<path fill="none" stroke="black" d="M259.41,-312.08C273.97,-321.63 292.58,-333.17 310,-342 349.38,-361.95 395.75,-380.33 431.21,-393.39"/>
<polygon fill="black" stroke="black" points="430.32,-396.79 440.92,-396.93 432.72,-390.22 430.32,-396.79"/>
<text text-anchor="middle" x="351" y="-387.2" font-family="Cabin" font-size="6.00">Composition: ELV_ICE_body</text>
<text text-anchor="middle" x="351" y="-380.2" font-family="Cabin" font-size="6.00">Amount: 0.0 kg</text>
</g>
<!-- smelter_cc -->
<g id="node6" class="node">
<title>smelter_cc</title>
<polygon fill="#ffa07a" stroke="black" points="520.5,-352 456.5,-352 456.5,-316 520.5,-316 520.5,-352"/>
<text text-anchor="middle" x="488.5" y="-331.5" font-family="Cabin" font-size="10.00">smelter_cc</text>
</g>
<!-- dismantling_ICE&#45;&gt;smelter_cc -->
<g id="edge5" class="edge">
<title>dismantling_ICE&#45;&gt;smelter_cc</title>
<path fill="none" stroke="black" d="M288.22,-302.68C335.76,-310.15 403.3,-320.77 446.26,-327.52"/>
<polygon fill="black" stroke="black" points="445.93,-331.01 456.36,-329.11 447.02,-324.09 445.93,-331.01"/>
<text text-anchor="middle" x="351" y="-327.2" font-family="Cabin" font-size="6.00">Composition: ELV_ICE_catconv</text>
<text text-anchor="middle" x="351" y="-320.2" font-family="Cabin" font-size="6.00">Amount: 0.0 kg</text>
</g>
<!-- shredding_elec -->
<g id="node7" class="node">
<title>shredding_elec</title>
<polygon fill="#ffa07a" stroke="black" points="529,-273 448,-273 448,-237 529,-237 529,-273"/>
<text text-anchor="middle" x="488.5" y="-252.5" font-family="Cabin" font-size="10.00">shredding_elec</text>
</g>
<!-- dismantling_ICE&#45;&gt;shredding_elec -->
<g id="edge6" class="edge">
<title>dismantling_ICE&#45;&gt;shredding_elec</title>
<path fill="none" stroke="black" d="M278.03,-275.94C288.38,-272.42 299.45,-269.16 310,-267 352.55,-258.27 401.91,-255.51 437.76,-254.8"/>
<polygon fill="black" stroke="black" points="438.02,-258.29 447.96,-254.64 437.91,-251.29 438.02,-258.29"/>
<text text-anchor="middle" x="351" y="-276.2" font-family="Cabin" font-size="6.00">Composition: ELV_ICE_elec</text>
<text text-anchor="middle" x="351" y="-269.2" font-family="Cabin" font-size="6.00">Amount: 0.0 kg</text>
</g>
<!-- shredding_engtrans -->
<g id="node8" class="node">
<title>shredding_engtrans</title>
<polygon fill="#ffa07a" stroke="black" points="538.5,-194 438.5,-194 438.5,-158 538.5,-158 538.5,-194"/>
<text text-anchor="middle" x="488.5" y="-173.5" font-family="Cabin" font-size="10.00">shredding_engtrans</text>
</g>
<!-- dismantling_ICE&#45;&gt;shredding_engtrans -->
<g id="edge7" class="edge">
<title>dismantling_ICE&#45;&gt;shredding_engtrans</title>
<path fill="none" stroke="black" d="M252.26,-275.9C267.09,-262.77 288.6,-245.38 310,-234 347.41,-214.1 392.89,-199.4 428.45,-189.78"/>
<polygon fill="black" stroke="black" points="429.43,-193.14 438.2,-187.2 427.64,-186.37 429.43,-193.14"/>
<text text-anchor="middle" x="351" y="-243.2" font-family="Cabin" font-size="6.00">Composition: ELV_ICE_engtrans</text>
<text text-anchor="middle" x="351" y="-236.2" font-family="Cabin" font-size="6.00">Amount: 0.0 kg</text>
</g>
<!-- market_waste_oil -->
<g id="node9" class="node">
<title>market_waste_oil</title>
<polygon fill="#ffa07a" stroke="black" points="534.5,-115 442.5,-115 442.5,-79 534.5,-79 534.5,-115"/>
<text text-anchor="middle" x="488.5" y="-94.5" font-family="Cabin" font-size="10.00">market_waste_oil</text>
</g>
<!-- dismantling_ICE&#45;&gt;market_waste_oil -->
<g id="edge8" class="edge">
<title>dismantling_ICE&#45;&gt;market_waste_oil</title>
<path fill="none" stroke="black" d="M241.17,-275.61C253.1,-250.59 277.46,-205.77 310,-178 345.83,-147.42 395.12,-126.16 432.66,-113.12"/>
<polygon fill="black" stroke="black" points="434.08,-116.34 442.43,-109.82 431.84,-109.71 434.08,-116.34"/>
<text text-anchor="middle" x="351" y="-187.2" font-family="Cabin" font-size="6.00">Composition: ELV_ICE_liquids</text>
<text text-anchor="middle" x="351" y="-180.2" font-family="Cabin" font-size="6.00">Amount: 0.0 kg</text>
</g>
<!-- shredding_tyre -->
<g id="node10" class="node">
<title>shredding_tyre</title>
<polygon fill="#ffa07a" stroke="black" points="528.5,-36 448.5,-36 448.5,0 528.5,0 528.5,-36"/>
<text text-anchor="middle" x="488.5" y="-15.5" font-family="Cabin" font-size="10.00">shredding_tyre</text>
</g>
<!-- dismantling_ICE&#45;&gt;shredding_tyre -->
<g id="edge9" class="edge">
<title>dismantling_ICE&#45;&gt;shredding_tyre</title>
<path fill="none" stroke="black" d="M236,-275.92C242.89,-239.5 263.02,-156.47 310,-106 344.89,-68.52 399.23,-44.87 438.6,-31.64"/>
<polygon fill="black" stroke="black" points="439.84,-34.92 448.27,-28.5 437.68,-28.26 439.84,-34.92"/>
<text text-anchor="middle" x="351" y="-115.2" font-family="Cabin" font-size="6.00">Composition: ELV_ICE_tyres</text>
<text text-anchor="middle" x="351" y="-108.2" font-family="Cabin" font-size="6.00">Amount: 0.0 kg</text>
</g>
<!-- collection_ICE -->
<g id="node2" class="node">
<title>collection_ICE</title>
<polygon fill="darkturquoise" stroke="black" points="76,-312 0,-312 0,-276 76,-276 76,-312"/>
<text text-anchor="middle" x="38" y="-291.5" font-family="Cabin" font-size="10.00">collection_ICE</text>
</g>
<!-- collection_ICE&#45;&gt;dismantling_ICE -->
<g id="edge1" class="edge">
<title>collection_ICE&#45;&gt;dismantling_ICE</title>
<path fill="none" stroke="black" d="M76.02,-294C101.36,-294 135.66,-294 165.55,-294"/>
<polygon fill="black" stroke="black" points="165.92,-297.5 175.92,-294 165.92,-290.5 165.92,-297.5"/>
<text text-anchor="middle" x="126" y="-303.2" font-family="Cabin" font-size="6.00">Composition: ELV_ICE</text>
<text text-anchor="middle" x="126" y="-296.2" font-family="Cabin" font-size="6.00">Amount: 0 kg</text>
</g>
</g>
</svg>
