<?xml version="1.0" encoding="UTF-8" standalone="no"?>
<!DOCTYPE svg PUBLIC "-//W3C//DTD SVG 1.1//EN"
 "http://www.w3.org/Graphics/SVG/1.1/DTD/svg11.dtd">
<!-- Generated by graphviz version 2.43.0 (0)
 -->
<!-- Title: %3 Pages: 1 -->
<svg width="349pt" height="99pt"
 viewBox="0.00 0.00 349.00 99.00" xmlns="http://www.w3.org/2000/svg" xmlns:xlink="http://www.w3.org/1999/xlink">
<g id="graph0" class="graph" transform="scale(1 1) rotate(0) translate(4 95)">
<title>%3</title>
<polygon fill="white" stroke="transparent" points="-4,4 -4,-95 345,-95 345,4 -4,4"/>
<text text-anchor="middle" x="170.5" y="-71" font-family="Cabin" font-size="20.00">Flowchart (isolated) for: collection_ICE</text>
<text text-anchor="middle" x="170.5" y="-49" font-family="Cabin" font-size="20.00">&#45;&#45;&#45;&#45;&#45;&#45;&#45;&#45;&#45;&#45;&#45;</text>
<!-- dismantling_ICE -->
<g id="node1" class="node">
<title>dismantling_ICE</title>
<polygon fill="#ffa07a" stroke="black" points="313,-36 228,-36 228,0 313,0 313,-36"/>
<text text-anchor="middle" x="270.5" y="-15.5" font-family="Cabin" font-size="10.00">dismantling_ICE</text>
</g>
<!-- collection_ICE -->
<g id="node2" class="node">
<title>collection_ICE</title>
<polygon fill="#e066ff" stroke="black" points="128,-36 28,-36 28,0 128,0 128,-36"/>
<text text-anchor="middle" x="78" y="-14.3" font-family="Cabin" font-size="14.00">collection_ICE</text>
</g>
<!-- collection_ICE&#45;&gt;dismantling_ICE -->
<g id="edge1" class="edge">
<title>collection_ICE&#45;&gt;dismantling_ICE</title>
<path fill="none" stroke="black" d="M128.06,-18C155.43,-18 189.51,-18 217.37,-18"/>
<polygon fill="black" stroke="black" points="217.71,-21.5 227.71,-18 217.71,-14.5 217.71,-21.5"/>
<text text-anchor="middle" x="178" y="-34.2" font-family="Cabin" font-size="6.00">Composition: ELV_ICE</text>
<text text-anchor="middle" x="178" y="-27.2" font-family="Cabin" font-size="6.00">Amount: 0 </text>
<text text-anchor="middle" x="178" y="-20.2" font-family="Cabin" font-size="6.00">Unit: kg</text>
</g>
</g>
</svg>
