<?xml version="1.0" encoding="UTF-8" standalone="no"?>
<!DOCTYPE svg PUBLIC "-//W3C//DTD SVG 1.1//EN"
 "http://www.w3.org/Graphics/SVG/1.1/DTD/svg11.dtd">
<!-- Generated by graphviz version 2.43.0 (0)
 -->
<!-- Title: %3 Pages: 1 -->
<svg width="353pt" height="175pt"
 viewBox="0.00 0.00 353.00 175.00" xmlns="http://www.w3.org/2000/svg" xmlns:xlink="http://www.w3.org/1999/xlink">
<g id="graph0" class="graph" transform="scale(1 1) rotate(0) translate(4 171)">
<title>%3</title>
<polygon fill="white" stroke="transparent" points="-4,4 -4,-171 349,-171 349,4 -4,4"/>
<text text-anchor="middle" x="172.5" y="-147" font-family="Cabin" font-size="20.00">Flowchart (isolated) for: market_waste</text>
<text text-anchor="middle" x="172.5" y="-125" font-family="Cabin" font-size="20.00">&#45;&#45;&#45;&#45;&#45;&#45;&#45;&#45;&#45;&#45;&#45;</text>
<!-- market_waste -->
<g id="node1" class="node">
<title>market_waste</title>
<polygon fill="#e066ff" stroke="black" points="345,-75 244,-75 244,-39 345,-39 345,-75"/>
<text text-anchor="middle" x="294.5" y="-53.3" font-family="Cabin" font-size="14.00">market_waste</text>
</g>
<!-- shredding_engtrans -->
<g id="node2" class="node">
<title>shredding_engtrans</title>
<polygon fill="darkturquoise" stroke="black" points="100,-115 0,-115 0,-79 100,-79 100,-115"/>
<text text-anchor="middle" x="50" y="-94.5" font-family="Cabin" font-size="10.00">shredding_engtrans</text>
</g>
<!-- shredding_engtrans&#45;&gt;market_waste -->
<g id="edge1" class="edge">
<title>shredding_engtrans&#45;&gt;market_waste</title>
<path fill="none" stroke="black" d="M100.07,-88.91C138.69,-82.54 192.65,-73.63 233.77,-66.85"/>
<polygon fill="black" stroke="black" points="234.37,-70.3 243.67,-65.22 233.23,-63.39 234.37,-70.3"/>
<text text-anchor="middle" x="172" y="-101.2" font-family="Cabin" font-size="6.00">Composition: ELV_ICE_waste_shredder</text>
<text text-anchor="middle" x="172" y="-94.2" font-family="Cabin" font-size="6.00">Amount: 0 </text>
<text text-anchor="middle" x="172" y="-87.2" font-family="Cabin" font-size="6.00">Unit: kg</text>
</g>
<!-- hammermill_body -->
<g id="node3" class="node">
<title>hammermill_body</title>
<polygon fill="darkturquoise" stroke="black" points="97.5,-36 2.5,-36 2.5,0 97.5,0 97.5,-36"/>
<text text-anchor="middle" x="50" y="-15.5" font-family="Cabin" font-size="10.00">hammermill_body</text>
</g>
<!-- hammermill_body&#45;&gt;market_waste -->
<g id="edge2" class="edge">
<title>hammermill_body&#45;&gt;market_waste</title>
<path fill="none" stroke="black" d="M97.77,-14.23C132.53,-12.66 180.86,-13.08 222,-23 232.63,-25.56 243.56,-29.82 253.58,-34.46"/>
<polygon fill="black" stroke="black" points="252.34,-37.75 262.86,-39 255.41,-31.46 252.34,-37.75"/>
<text text-anchor="middle" x="172" y="-39.2" font-family="Cabin" font-size="6.00">Composition: ELV_ICE_waste_shredder</text>
<text text-anchor="middle" x="172" y="-32.2" font-family="Cabin" font-size="6.00">Amount: 0 </text>
<text text-anchor="middle" x="172" y="-25.2" font-family="Cabin" font-size="6.00">Unit: kg</text>
</g>
</g>
</svg>
