<?xml version="1.0" encoding="UTF-8" standalone="no"?>
<!DOCTYPE svg PUBLIC "-//W3C//DTD SVG 1.1//EN"
 "http://www.w3.org/Graphics/SVG/1.1/DTD/svg11.dtd">
<!-- Generated by graphviz version 2.43.0 (0)
 -->
<!-- Title: %3 Pages: 1 -->
<svg width="563pt" height="333pt"
 viewBox="0.00 0.00 563.00 333.00" xmlns="http://www.w3.org/2000/svg" xmlns:xlink="http://www.w3.org/1999/xlink">
<g id="graph0" class="graph" transform="scale(1 1) rotate(0) translate(4 329)">
<title>%3</title>
<polygon fill="white" stroke="transparent" points="-4,4 -4,-329 559,-329 559,4 -4,4"/>
<text text-anchor="middle" x="277.5" y="-305" font-family="Cabin" font-size="20.00">Flowchart (isolated) for: shredding_engtrans</text>
<text text-anchor="middle" x="277.5" y="-283" font-family="Cabin" font-size="20.00">&#45;&#45;&#45;&#45;&#45;&#45;&#45;&#45;&#45;&#45;&#45;</text>
<!-- shredding_engtrans -->
<g id="node1" class="node">
<title>shredding_engtrans</title>
<polygon fill="#e066ff" stroke="black" points="332,-154 198,-154 198,-118 332,-118 332,-154"/>
<text text-anchor="middle" x="265" y="-132.3" font-family="Cabin" font-size="14.00">shredding_engtrans</text>
</g>
<!-- smelter_nonferrous -->
<g id="node3" class="node">
<title>smelter_nonferrous</title>
<polygon fill="#ffa07a" stroke="black" points="553,-273 453,-273 453,-237 553,-237 553,-273"/>
<text text-anchor="middle" x="503" y="-252.5" font-family="Cabin" font-size="10.00">smelter_nonferrous</text>
</g>
<!-- shredding_engtrans&#45;&gt;smelter_nonferrous -->
<g id="edge2" class="edge">
<title>shredding_engtrans&#45;&gt;smelter_nonferrous</title>
<path fill="none" stroke="black" d="M290.63,-154.08C307.85,-166.26 331.68,-182.19 354,-194 382.56,-209.12 415.72,-223.09 443.39,-233.84"/>
<polygon fill="black" stroke="black" points="442.35,-237.18 452.94,-237.5 444.86,-230.65 442.35,-237.18"/>
<text text-anchor="middle" x="391.5" y="-242.2" font-family="Cabin" font-size="6.00">Composition: nonferrous</text>
<text text-anchor="middle" x="391.5" y="-235.2" font-family="Cabin" font-size="6.00">Amount: None </text>
<text text-anchor="middle" x="391.5" y="-228.2" font-family="Cabin" font-size="6.00">Unit: None</text>
</g>
<!-- smelter_ferrous -->
<g id="node4" class="node">
<title>smelter_ferrous</title>
<polygon fill="#ffa07a" stroke="black" points="545,-194 461,-194 461,-158 545,-158 545,-194"/>
<text text-anchor="middle" x="503" y="-173.5" font-family="Cabin" font-size="10.00">smelter_ferrous</text>
</g>
<!-- shredding_engtrans&#45;&gt;smelter_ferrous -->
<g id="edge3" class="edge">
<title>shredding_engtrans&#45;&gt;smelter_ferrous</title>
<path fill="none" stroke="black" d="M332.05,-147.2C369.66,-153.57 416.06,-161.43 450.87,-167.33"/>
<polygon fill="black" stroke="black" points="450.37,-170.8 460.82,-169.02 451.54,-163.9 450.37,-170.8"/>
<text text-anchor="middle" x="391.5" y="-179.2" font-family="Cabin" font-size="6.00">Composition: ferrous</text>
<text text-anchor="middle" x="391.5" y="-172.2" font-family="Cabin" font-size="6.00">Amount: None </text>
<text text-anchor="middle" x="391.5" y="-165.2" font-family="Cabin" font-size="6.00">Unit: None</text>
</g>
<!-- market_waste_glass -->
<g id="node5" class="node">
<title>market_waste_glass</title>
<polygon fill="#ffa07a" stroke="black" points="555,-115 451,-115 451,-79 555,-79 555,-115"/>
<text text-anchor="middle" x="503" y="-94.5" font-family="Cabin" font-size="10.00">market_waste_glass</text>
</g>
<!-- shredding_engtrans&#45;&gt;market_waste_glass -->
<g id="edge4" class="edge">
<title>shredding_engtrans&#45;&gt;market_waste_glass</title>
<path fill="none" stroke="black" d="M304.58,-117.88C319.66,-111.65 337.31,-105.4 354,-102 382.14,-96.26 413.91,-94.58 440.78,-94.5"/>
<polygon fill="black" stroke="black" points="440.8,-98 450.82,-94.55 440.84,-91 440.8,-98"/>
<text text-anchor="middle" x="391.5" y="-118.2" font-family="Cabin" font-size="6.00">Composition: glass</text>
<text text-anchor="middle" x="391.5" y="-111.2" font-family="Cabin" font-size="6.00">Amount: None </text>
<text text-anchor="middle" x="391.5" y="-104.2" font-family="Cabin" font-size="6.00">Unit: None</text>
</g>
<!-- market_waste -->
<g id="node6" class="node">
<title>market_waste</title>
<polygon fill="#ffa07a" stroke="black" points="541.5,-36 464.5,-36 464.5,0 541.5,0 541.5,-36"/>
<text text-anchor="middle" x="503" y="-15.5" font-family="Cabin" font-size="10.00">market_waste</text>
</g>
<!-- shredding_engtrans&#45;&gt;market_waste -->
<g id="edge5" class="edge">
<title>shredding_engtrans&#45;&gt;market_waste</title>
<path fill="none" stroke="black" d="M283.7,-117.99C300.48,-101.83 327.05,-78.5 354,-64 385.61,-46.99 424.47,-35.22 454.44,-27.84"/>
<polygon fill="black" stroke="black" points="455.32,-31.23 464.24,-25.51 453.7,-24.42 455.32,-31.23"/>
<text text-anchor="middle" x="391.5" y="-80.2" font-family="Cabin" font-size="6.00">Composition: waste_shredder</text>
<text text-anchor="middle" x="391.5" y="-73.2" font-family="Cabin" font-size="6.00">Amount: None </text>
<text text-anchor="middle" x="391.5" y="-66.2" font-family="Cabin" font-size="6.00">Unit: None</text>
</g>
<!-- dismantling_ICE -->
<g id="node2" class="node">
<title>dismantling_ICE</title>
<polygon fill="darkturquoise" stroke="black" points="85,-154 0,-154 0,-118 85,-118 85,-154"/>
<text text-anchor="middle" x="42.5" y="-133.5" font-family="Cabin" font-size="10.00">dismantling_ICE</text>
</g>
<!-- dismantling_ICE&#45;&gt;shredding_engtrans -->
<g id="edge1" class="edge">
<title>dismantling_ICE&#45;&gt;shredding_engtrans</title>
<path fill="none" stroke="black" d="M85.23,-136C114.1,-136 153.34,-136 187.71,-136"/>
<polygon fill="black" stroke="black" points="187.73,-139.5 197.73,-136 187.73,-132.5 187.73,-139.5"/>
<text text-anchor="middle" x="141.5" y="-152.2" font-family="Cabin" font-size="6.00">Composition: ICE_engtrans</text>
<text text-anchor="middle" x="141.5" y="-145.2" font-family="Cabin" font-size="6.00">Amount: None </text>
<text text-anchor="middle" x="141.5" y="-138.2" font-family="Cabin" font-size="6.00">Unit: None</text>
</g>
</g>
</svg>
