<?xml version="1.0" encoding="UTF-8" standalone="no"?>
<!DOCTYPE svg PUBLIC "-//W3C//DTD SVG 1.1//EN"
 "http://www.w3.org/Graphics/SVG/1.1/DTD/svg11.dtd">
<!-- Generated by graphviz version 2.43.0 (0)
 -->
<!-- Title: %3 Pages: 1 -->
<svg width="516pt" height="175pt"
 viewBox="0.00 0.00 516.00 175.00" xmlns="http://www.w3.org/2000/svg" xmlns:xlink="http://www.w3.org/1999/xlink">
<g id="graph0" class="graph" transform="scale(1 1) rotate(0) translate(4 171)">
<title>%3</title>
<polygon fill="white" stroke="transparent" points="-4,4 -4,-171 512,-171 512,4 -4,4"/>
<text text-anchor="middle" x="254" y="-147" font-family="Cabin" font-size="20.00">Flowchart (isolated) for: shredding_elec</text>
<text text-anchor="middle" x="254" y="-125" font-family="Cabin" font-size="20.00">&#45;&#45;&#45;&#45;&#45;&#45;&#45;&#45;&#45;&#45;&#45;</text>
<!-- shredding_elec -->
<g id="node1" class="node">
<title>shredding_elec</title>
<polygon fill="#e066ff" stroke="black" points="294,-75 187,-75 187,-39 294,-39 294,-75"/>
<text text-anchor="middle" x="240.5" y="-53.3" font-family="Cabin" font-size="14.00">shredding_elec</text>
</g>
<!-- smelter_nonferrous -->
<g id="node3" class="node">
<title>smelter_nonferrous</title>
<polygon fill="#ffa07a" stroke="black" points="503.5,-115 403.5,-115 403.5,-79 503.5,-79 503.5,-115"/>
<text text-anchor="middle" x="453.5" y="-94.5" font-family="Cabin" font-size="10.00">smelter_nonferrous</text>
</g>
<!-- shredding_elec&#45;&gt;smelter_nonferrous -->
<g id="edge2" class="edge">
<title>shredding_elec&#45;&gt;smelter_nonferrous</title>
<path fill="none" stroke="black" d="M294.2,-66.99C324.38,-72.71 362.33,-79.91 393.5,-85.82"/>
<polygon fill="black" stroke="black" points="392.89,-89.26 403.36,-87.69 394.19,-82.38 392.89,-89.26"/>
<text text-anchor="middle" x="346.5" y="-97.2" font-family="Cabin" font-size="6.00">Composition: nonferrous</text>
<text text-anchor="middle" x="346.5" y="-90.2" font-family="Cabin" font-size="6.00">Amount: None </text>
<text text-anchor="middle" x="346.5" y="-83.2" font-family="Cabin" font-size="6.00">Unit: None</text>
</g>
<!-- market_waste_plastic -->
<g id="node4" class="node">
<title>market_waste_plastic</title>
<polygon fill="#ffa07a" stroke="black" points="508,-36 399,-36 399,0 508,0 508,-36"/>
<text text-anchor="middle" x="453.5" y="-15.5" font-family="Cabin" font-size="10.00">market_waste_plastic</text>
</g>
<!-- shredding_elec&#45;&gt;market_waste_plastic -->
<g id="edge3" class="edge">
<title>shredding_elec&#45;&gt;market_waste_plastic</title>
<path fill="none" stroke="black" d="M273.89,-38.88C286.62,-32.65 301.61,-26.41 316,-23 339.32,-17.48 365.49,-15.54 388.64,-15.21"/>
<polygon fill="black" stroke="black" points="388.71,-18.71 398.7,-15.17 388.68,-11.71 388.71,-18.71"/>
<text text-anchor="middle" x="346.5" y="-39.2" font-family="Cabin" font-size="6.00">Composition: plastic</text>
<text text-anchor="middle" x="346.5" y="-32.2" font-family="Cabin" font-size="6.00">Amount: None </text>
<text text-anchor="middle" x="346.5" y="-25.2" font-family="Cabin" font-size="6.00">Unit: None</text>
</g>
<!-- dismantling_ICE -->
<g id="node2" class="node">
<title>dismantling_ICE</title>
<polygon fill="darkturquoise" stroke="black" points="85,-75 0,-75 0,-39 85,-39 85,-75"/>
<text text-anchor="middle" x="42.5" y="-54.5" font-family="Cabin" font-size="10.00">dismantling_ICE</text>
</g>
<!-- dismantling_ICE&#45;&gt;shredding_elec -->
<g id="edge1" class="edge">
<title>dismantling_ICE&#45;&gt;shredding_elec</title>
<path fill="none" stroke="black" d="M85.07,-57C111.6,-57 146.52,-57 176.43,-57"/>
<polygon fill="black" stroke="black" points="176.78,-60.5 186.78,-57 176.78,-53.5 176.78,-60.5"/>
<text text-anchor="middle" x="136" y="-73.2" font-family="Cabin" font-size="6.00">Composition: ICE_elec</text>
<text text-anchor="middle" x="136" y="-66.2" font-family="Cabin" font-size="6.00">Amount: None </text>
<text text-anchor="middle" x="136" y="-59.2" font-family="Cabin" font-size="6.00">Unit: None</text>
</g>
</g>
</svg>
