<?xml version="1.0" encoding="UTF-8" standalone="no"?>
<!DOCTYPE svg PUBLIC "-//W3C//DTD SVG 1.1//EN"
 "http://www.w3.org/Graphics/SVG/1.1/DTD/svg11.dtd">
<!-- Generated by graphviz version 2.43.0 (0)
 -->
<!-- Title: %3 Pages: 1 -->
<svg width="551pt" height="254pt"
 viewBox="0.00 0.00 551.00 254.00" xmlns="http://www.w3.org/2000/svg" xmlns:xlink="http://www.w3.org/1999/xlink">
<g id="graph0" class="graph" transform="scale(1 1) rotate(0) translate(4 250)">
<title>%3</title>
<polygon fill="white" stroke="transparent" points="-4,4 -4,-250 547,-250 547,4 -4,4"/>
<text text-anchor="middle" x="271.5" y="-226" font-family="Cabin" font-size="20.00">Flowchart (isolated) for: smelter_nonferrous</text>
<text text-anchor="middle" x="271.5" y="-204" font-family="Cabin" font-size="20.00">&#45;&#45;&#45;&#45;&#45;&#45;&#45;&#45;&#45;&#45;&#45;</text>
<!-- smelter_nonferrous -->
<g id="node1" class="node">
<title>smelter_nonferrous</title>
<polygon fill="#e066ff" stroke="black" points="339,-115 205,-115 205,-79 339,-79 339,-115"/>
<text text-anchor="middle" x="272" y="-93.3" font-family="Cabin" font-size="14.00">smelter_nonferrous</text>
</g>
<!-- market_nonferrous -->
<g id="node5" class="node">
<title>market_nonferrous</title>
<polygon fill="#ffa07a" stroke="black" points="542,-155 445,-155 445,-119 542,-119 542,-155"/>
<text text-anchor="middle" x="493.5" y="-134.5" font-family="Cabin" font-size="10.00">market_nonferrous</text>
</g>
<!-- smelter_nonferrous&#45;&gt;market_nonferrous -->
<g id="edge4" class="edge">
<title>smelter_nonferrous&#45;&gt;market_nonferrous</title>
<path fill="none" stroke="black" d="M339.15,-109.06C369.64,-114.61 405.49,-121.14 434.86,-126.5"/>
<polygon fill="black" stroke="black" points="434.49,-129.99 444.95,-128.34 435.74,-123.1 434.49,-129.99"/>
<text text-anchor="middle" x="391.5" y="-140.2" font-family="Cabin" font-size="6.00">Composition: nonferrous</text>
<text text-anchor="middle" x="391.5" y="-133.2" font-family="Cabin" font-size="6.00">Amount: None </text>
<text text-anchor="middle" x="391.5" y="-126.2" font-family="Cabin" font-size="6.00">Unit: None</text>
</g>
<!-- market_waste_slag -->
<g id="node6" class="node">
<title>market_waste_slag</title>
<polygon fill="#ffa07a" stroke="black" points="543,-76 444,-76 444,-40 543,-40 543,-76"/>
<text text-anchor="middle" x="493.5" y="-55.5" font-family="Cabin" font-size="10.00">market_waste_slag</text>
</g>
<!-- smelter_nonferrous&#45;&gt;market_waste_slag -->
<g id="edge5" class="edge">
<title>smelter_nonferrous&#45;&gt;market_waste_slag</title>
<path fill="none" stroke="black" d="M311.59,-78.91C326.67,-72.7 344.32,-66.44 361,-63 384.48,-58.16 410.8,-56.45 433.7,-56.11"/>
<polygon fill="black" stroke="black" points="433.97,-59.61 443.95,-56.05 433.93,-52.61 433.97,-59.61"/>
<text text-anchor="middle" x="391.5" y="-79.2" font-family="Cabin" font-size="6.00">Composition: slag_nfe</text>
<text text-anchor="middle" x="391.5" y="-72.2" font-family="Cabin" font-size="6.00">Amount: None </text>
<text text-anchor="middle" x="391.5" y="-65.2" font-family="Cabin" font-size="6.00">Unit: None</text>
</g>
<!-- shredding_engtrans -->
<g id="node2" class="node">
<title>shredding_engtrans</title>
<polygon fill="darkturquoise" stroke="black" points="100,-194 0,-194 0,-158 100,-158 100,-194"/>
<text text-anchor="middle" x="50" y="-173.5" font-family="Cabin" font-size="10.00">shredding_engtrans</text>
</g>
<!-- shredding_engtrans&#45;&gt;smelter_nonferrous -->
<g id="edge1" class="edge">
<title>shredding_engtrans&#45;&gt;smelter_nonferrous</title>
<path fill="none" stroke="black" d="M100.1,-158.37C132.86,-146.61 176.14,-131.06 210.95,-118.56"/>
<polygon fill="black" stroke="black" points="212.3,-121.8 220.53,-115.12 209.93,-115.21 212.3,-121.8"/>
<text text-anchor="middle" x="152.5" y="-166.2" font-family="Cabin" font-size="6.00">Composition: nonferrous</text>
<text text-anchor="middle" x="152.5" y="-159.2" font-family="Cabin" font-size="6.00">Amount: None </text>
<text text-anchor="middle" x="152.5" y="-152.2" font-family="Cabin" font-size="6.00">Unit: None</text>
</g>
<!-- hammermill_body -->
<g id="node3" class="node">
<title>hammermill_body</title>
<polygon fill="darkturquoise" stroke="black" points="97.5,-115 2.5,-115 2.5,-79 97.5,-79 97.5,-115"/>
<text text-anchor="middle" x="50" y="-94.5" font-family="Cabin" font-size="10.00">hammermill_body</text>
</g>
<!-- hammermill_body&#45;&gt;smelter_nonferrous -->
<g id="edge2" class="edge">
<title>hammermill_body&#45;&gt;smelter_nonferrous</title>
<path fill="none" stroke="black" d="M97.66,-97C125.77,-97 162.25,-97 194.49,-97"/>
<polygon fill="black" stroke="black" points="194.8,-100.5 204.8,-97 194.8,-93.5 194.8,-100.5"/>
<text text-anchor="middle" x="152.5" y="-113.2" font-family="Cabin" font-size="6.00">Composition: nonferrous</text>
<text text-anchor="middle" x="152.5" y="-106.2" font-family="Cabin" font-size="6.00">Amount: None </text>
<text text-anchor="middle" x="152.5" y="-99.2" font-family="Cabin" font-size="6.00">Unit: None</text>
</g>
<!-- shredding_elec -->
<g id="node4" class="node">
<title>shredding_elec</title>
<polygon fill="darkturquoise" stroke="black" points="90.5,-36 9.5,-36 9.5,0 90.5,0 90.5,-36"/>
<text text-anchor="middle" x="50" y="-15.5" font-family="Cabin" font-size="10.00">shredding_elec</text>
</g>
<!-- shredding_elec&#45;&gt;smelter_nonferrous -->
<g id="edge3" class="edge">
<title>shredding_elec&#45;&gt;smelter_nonferrous</title>
<path fill="none" stroke="black" d="M90.59,-32.21C124.11,-44.25 172.7,-61.7 211.01,-75.46"/>
<polygon fill="black" stroke="black" points="209.92,-78.78 220.51,-78.87 212.28,-72.2 209.92,-78.78"/>
<text text-anchor="middle" x="152.5" y="-80.2" font-family="Cabin" font-size="6.00">Composition: nonferrous</text>
<text text-anchor="middle" x="152.5" y="-73.2" font-family="Cabin" font-size="6.00">Amount: None </text>
<text text-anchor="middle" x="152.5" y="-66.2" font-family="Cabin" font-size="6.00">Unit: None</text>
</g>
</g>
</svg>
