<?xml version="1.0" encoding="UTF-8" standalone="no"?>
<!DOCTYPE svg PUBLIC "-//W3C//DTD SVG 1.1//EN"
 "http://www.w3.org/Graphics/SVG/1.1/DTD/svg11.dtd">
<!-- Generated by graphviz version 2.43.0 (0)
 -->
<!-- Title: %3 Pages: 1 -->
<svg width="485pt" height="175pt"
 viewBox="0.00 0.00 485.00 175.00" xmlns="http://www.w3.org/2000/svg" xmlns:xlink="http://www.w3.org/1999/xlink">
<g id="graph0" class="graph" transform="scale(1 1) rotate(0) translate(4 171)">
<title>%3</title>
<polygon fill="white" stroke="transparent" points="-4,4 -4,-171 481,-171 481,4 -4,4"/>
<text text-anchor="middle" x="238.5" y="-147" font-family="Cabin" font-size="20.00">Flowchart (isolated) for: smelter_cc</text>
<text text-anchor="middle" x="238.5" y="-125" font-family="Cabin" font-size="20.00">&#45;&#45;&#45;&#45;&#45;&#45;&#45;&#45;&#45;&#45;&#45;</text>
<!-- smelter_cc -->
<g id="node1" class="node">
<title>smelter_cc</title>
<polygon fill="#e066ff" stroke="black" points="278,-75 196,-75 196,-39 278,-39 278,-75"/>
<text text-anchor="middle" x="237" y="-53.3" font-family="Cabin" font-size="14.00">smelter_cc</text>
</g>
<!-- market_ree -->
<g id="node3" class="node">
<title>market_ree</title>
<polygon fill="#ffa07a" stroke="black" points="460,-115 395,-115 395,-79 460,-79 460,-115"/>
<text text-anchor="middle" x="427.5" y="-94.5" font-family="Cabin" font-size="10.00">market_ree</text>
</g>
<!-- smelter_cc&#45;&gt;market_ree -->
<g id="edge2" class="edge">
<title>smelter_cc&#45;&gt;market_ree</title>
<path fill="none" stroke="black" d="M278.44,-65.58C309.87,-72.25 353.31,-81.47 385.01,-88.19"/>
<polygon fill="black" stroke="black" points="384.35,-91.63 394.85,-90.28 385.8,-84.79 384.35,-91.63"/>
<text text-anchor="middle" x="328" y="-97.2" font-family="Cabin" font-size="6.00">Composition: ree</text>
<text text-anchor="middle" x="328" y="-90.2" font-family="Cabin" font-size="6.00">Amount: None </text>
<text text-anchor="middle" x="328" y="-83.2" font-family="Cabin" font-size="6.00">Unit: None</text>
</g>
<!-- market_waste_slag -->
<g id="node4" class="node">
<title>market_waste_slag</title>
<polygon fill="#ffa07a" stroke="black" points="477,-36 378,-36 378,0 477,0 477,-36"/>
<text text-anchor="middle" x="427.5" y="-15.5" font-family="Cabin" font-size="10.00">market_waste_slag</text>
</g>
<!-- smelter_cc&#45;&gt;market_waste_slag -->
<g id="edge3" class="edge">
<title>smelter_cc&#45;&gt;market_waste_slag</title>
<path fill="none" stroke="black" d="M264.6,-38.88C275.16,-32.66 287.7,-26.41 300,-23 321.67,-16.99 346.22,-14.99 367.89,-14.74"/>
<polygon fill="black" stroke="black" points="367.94,-18.24 377.94,-14.75 367.95,-11.24 367.94,-18.24"/>
<text text-anchor="middle" x="328" y="-39.2" font-family="Cabin" font-size="6.00">Composition: slag_ree</text>
<text text-anchor="middle" x="328" y="-32.2" font-family="Cabin" font-size="6.00">Amount: None </text>
<text text-anchor="middle" x="328" y="-25.2" font-family="Cabin" font-size="6.00">Unit: None</text>
</g>
<!-- dismantling_ICE -->
<g id="node2" class="node">
<title>dismantling_ICE</title>
<polygon fill="darkturquoise" stroke="black" points="85,-75 0,-75 0,-39 85,-39 85,-75"/>
<text text-anchor="middle" x="42.5" y="-54.5" font-family="Cabin" font-size="10.00">dismantling_ICE</text>
</g>
<!-- dismantling_ICE&#45;&gt;smelter_cc -->
<g id="edge1" class="edge">
<title>dismantling_ICE&#45;&gt;smelter_cc</title>
<path fill="none" stroke="black" d="M85.27,-57C114.78,-57 154.47,-57 185.71,-57"/>
<polygon fill="black" stroke="black" points="185.96,-60.5 195.96,-57 185.96,-53.5 185.96,-60.5"/>
<text text-anchor="middle" x="140.5" y="-73.2" font-family="Cabin" font-size="6.00">Composition: ICE_catconv</text>
<text text-anchor="middle" x="140.5" y="-66.2" font-family="Cabin" font-size="6.00">Amount: None </text>
<text text-anchor="middle" x="140.5" y="-59.2" font-family="Cabin" font-size="6.00">Unit: None</text>
</g>
</g>
</svg>
