<?xml version="1.0" encoding="UTF-8" standalone="no"?>
<!DOCTYPE svg PUBLIC "-//W3C//DTD SVG 1.1//EN"
 "http://www.w3.org/Graphics/SVG/1.1/DTD/svg11.dtd">
<!-- Generated by graphviz version 2.43.0 (0)
 -->
<!-- Title: %3 Pages: 1 -->
<svg width="513pt" height="254pt"
 viewBox="0.00 0.00 513.00 254.00" xmlns="http://www.w3.org/2000/svg" xmlns:xlink="http://www.w3.org/1999/xlink">
<g id="graph0" class="graph" transform="scale(1 1) rotate(0) translate(4 250)">
<title>%3</title>
<polygon fill="white" stroke="transparent" points="-4,4 -4,-250 509,-250 509,4 -4,4"/>
<text text-anchor="middle" x="252.5" y="-226" font-family="Cabin" font-size="20.00">Flowchart (isolated) for: smelter_ferrous</text>
<text text-anchor="middle" x="252.5" y="-204" font-family="Cabin" font-size="20.00">&#45;&#45;&#45;&#45;&#45;&#45;&#45;&#45;&#45;&#45;&#45;</text>
<!-- smelter_ferrous -->
<g id="node1" class="node">
<title>smelter_ferrous</title>
<polygon fill="#e066ff" stroke="black" points="308,-115 196,-115 196,-79 308,-79 308,-115"/>
<text text-anchor="middle" x="252" y="-93.3" font-family="Cabin" font-size="14.00">smelter_ferrous</text>
</g>
<!-- market_ferrous -->
<g id="node5" class="node">
<title>market_ferrous</title>
<polygon fill="#ffa07a" stroke="black" points="496,-155 415,-155 415,-119 496,-119 496,-155"/>
<text text-anchor="middle" x="455.5" y="-134.5" font-family="Cabin" font-size="10.00">market_ferrous</text>
</g>
<!-- smelter_ferrous&#45;&gt;market_ferrous -->
<g id="edge4" class="edge">
<title>smelter_ferrous&#45;&gt;market_ferrous</title>
<path fill="none" stroke="black" d="M308.06,-107.93C338.29,-113.93 375.48,-121.31 404.82,-127.14"/>
<polygon fill="black" stroke="black" points="404.35,-130.61 414.84,-129.13 405.71,-123.75 404.35,-130.61"/>
<text text-anchor="middle" x="357" y="-138.2" font-family="Cabin" font-size="6.00">Composition: ferrous</text>
<text text-anchor="middle" x="357" y="-131.2" font-family="Cabin" font-size="6.00">Amount: None </text>
<text text-anchor="middle" x="357" y="-124.2" font-family="Cabin" font-size="6.00">Unit: None</text>
</g>
<!-- market_waste_slag -->
<g id="node6" class="node">
<title>market_waste_slag</title>
<polygon fill="#ffa07a" stroke="black" points="505,-76 406,-76 406,-40 505,-40 505,-76"/>
<text text-anchor="middle" x="455.5" y="-55.5" font-family="Cabin" font-size="10.00">market_waste_slag</text>
</g>
<!-- smelter_ferrous&#45;&gt;market_waste_slag -->
<g id="edge5" class="edge">
<title>smelter_ferrous&#45;&gt;market_waste_slag</title>
<path fill="none" stroke="black" d="M286.54,-78.91C299.71,-72.69 315.2,-66.43 330,-63 351.1,-58.11 374.73,-56.27 395.7,-55.86"/>
<polygon fill="black" stroke="black" points="395.79,-59.36 405.75,-55.76 395.72,-52.36 395.79,-59.36"/>
<text text-anchor="middle" x="357" y="-79.2" font-family="Cabin" font-size="6.00">Composition: slag_fe</text>
<text text-anchor="middle" x="357" y="-72.2" font-family="Cabin" font-size="6.00">Amount: None </text>
<text text-anchor="middle" x="357" y="-65.2" font-family="Cabin" font-size="6.00">Unit: None</text>
</g>
<!-- shredding_engtrans -->
<g id="node2" class="node">
<title>shredding_engtrans</title>
<polygon fill="darkturquoise" stroke="black" points="100,-194 0,-194 0,-158 100,-158 100,-194"/>
<text text-anchor="middle" x="50" y="-173.5" font-family="Cabin" font-size="10.00">shredding_engtrans</text>
</g>
<!-- shredding_engtrans&#45;&gt;smelter_ferrous -->
<g id="edge1" class="edge">
<title>shredding_engtrans&#45;&gt;smelter_ferrous</title>
<path fill="none" stroke="black" d="M97.48,-158C120.52,-149.04 148.75,-138.01 174,-128 181.43,-125.06 189.25,-121.93 196.95,-118.84"/>
<polygon fill="black" stroke="black" points="198.27,-122.09 206.24,-115.11 195.66,-115.59 198.27,-122.09"/>
<text text-anchor="middle" x="148" y="-163.2" font-family="Cabin" font-size="6.00">Composition: ferrous</text>
<text text-anchor="middle" x="148" y="-156.2" font-family="Cabin" font-size="6.00">Amount: None </text>
<text text-anchor="middle" x="148" y="-149.2" font-family="Cabin" font-size="6.00">Unit: None</text>
</g>
<!-- hammermill_body -->
<g id="node3" class="node">
<title>hammermill_body</title>
<polygon fill="darkturquoise" stroke="black" points="97.5,-115 2.5,-115 2.5,-79 97.5,-79 97.5,-115"/>
<text text-anchor="middle" x="50" y="-94.5" font-family="Cabin" font-size="10.00">hammermill_body</text>
</g>
<!-- hammermill_body&#45;&gt;smelter_ferrous -->
<g id="edge2" class="edge">
<title>hammermill_body&#45;&gt;smelter_ferrous</title>
<path fill="none" stroke="black" d="M97.64,-97C123.75,-97 156.73,-97 185.4,-97"/>
<polygon fill="black" stroke="black" points="185.75,-100.5 195.75,-97 185.75,-93.5 185.75,-100.5"/>
<text text-anchor="middle" x="148" y="-113.2" font-family="Cabin" font-size="6.00">Composition: ferrous</text>
<text text-anchor="middle" x="148" y="-106.2" font-family="Cabin" font-size="6.00">Amount: None </text>
<text text-anchor="middle" x="148" y="-99.2" font-family="Cabin" font-size="6.00">Unit: None</text>
</g>
<!-- shredding_tyre -->
<g id="node4" class="node">
<title>shredding_tyre</title>
<polygon fill="darkturquoise" stroke="black" points="90,-36 10,-36 10,0 90,0 90,-36"/>
<text text-anchor="middle" x="50" y="-15.5" font-family="Cabin" font-size="10.00">shredding_tyre</text>
</g>
<!-- shredding_tyre&#45;&gt;smelter_ferrous -->
<g id="edge3" class="edge">
<title>shredding_tyre&#45;&gt;smelter_ferrous</title>
<path fill="none" stroke="black" d="M90.1,-33.13C114.29,-42.53 145.98,-54.89 174,-66 181.43,-68.94 189.25,-72.07 196.95,-75.16"/>
<polygon fill="black" stroke="black" points="195.66,-78.41 206.24,-78.89 198.27,-71.91 195.66,-78.41"/>
<text text-anchor="middle" x="148" y="-82.2" font-family="Cabin" font-size="6.00">Composition: ferrous</text>
<text text-anchor="middle" x="148" y="-75.2" font-family="Cabin" font-size="6.00">Amount: None </text>
<text text-anchor="middle" x="148" y="-68.2" font-family="Cabin" font-size="6.00">Unit: None</text>
</g>
</g>
</svg>
